<?xml version="1.0" encoding="UTF-8"?>
<!DOCTYPE svg PUBLIC "-//W3C//DTD SVG 1.1//EN" "http://www.w3.org/Graphics/SVG/1.1/DTD/svg11.dtd">
<!-- Creator: CorelDRAW -->
<svg xmlns="http://www.w3.org/2000/svg" xml:space="preserve" width="2048px" height="2048px" style="shape-rendering:geometricPrecision; text-rendering:geometricPrecision; image-rendering:optimizeQuality; fill-rule:evenodd; clip-rule:evenodd"
viewBox="0 0 2048 2048"
 xmlns:xlink="http://www.w3.org/1999/xlink">
 <defs>
  <style type="text/css">
   <![CDATA[
    .fil3 {fill:none}
    .fil0 {fill:#64B5F6}
    .fil1 {fill:#424242;fill-rule:nonzero}
    .fil2 {fill:#64B5F6;fill-rule:nonzero}
   ]]>
  </style>
 </defs>
 <g id="Layer_x0020_1">
  <metadata id="CorelCorpID_0Corel-Layer"/>
  <path class="fil0" d="M984.242 857.599c-0.467717,-0.359055 -0.957875,-0.696851 -1.4126,-1.00984 -19.3524,-13.3087 -42.5351,-20.1343 -65.9871,-17.0587 -49.8733,6.54095 -84.9579,52.154 -78.4146,102.039 3.09921,23.6292 16.8461,44.0303 34.0819,59.9008l0.119291 0.109843c15.013,13.8236 28.0465,30.3768 41.6268,45.6213 10.4232,11.7012 20.8465,23.4024 31.4752,34.917 45.4748,49.2662 106.276,109.73 178.315,109.708 25.1906,-0.00826772 49.2071,-5.03622 72.5788,-14.3197 55.565,-22.0689 104.795,-66.854 150.338,-104.728 20.4685,-17.0209 41.2288,-33.7677 63.1571,-48.8894l1.12795 -0.778347c0.455906,-0.403937 0.901182,-0.83504 1.29803,-1.20354 16.2921,-15.098 28.8544,-34.3347 28.0713,-57.2776 -0.437008,-12.789 -4.50591,-25.0536 -11.3386,-35.824 -6.82441,-10.7587 -16.3063,-19.8815 -27.0815,-26.6398 -23.7851,-14.9173 -52.2,-17.7142 -78.3367,-7.29804l-1.51654 0.603544c-0.527953,0.302362 -1.04528,0.629528 -1.51299,0.922442 -27.6284,17.2595 -51.9957,35.6776 -77.4154,55.8638 -25.2284,20.0351 -49.7351,38.1756 -77.2501,55.1103l-8.9256 5.49331 -9.59646 -4.213c-16.6488,-7.30985 -35.4992,-24.5669 -48.7843,-36.9272 -21.5232,-20.0221 -42.1866,-41.2595 -62.8252,-62.1957 -16.8473,-17.0894 -33.7028,-34.1681 -50.8288,-50.98l-0.962599 -0.946064z"/>
  <path class="fil1" d="M1016.57 461.47c1.18583,8.09646 1.80236,16.324 1.80236,24.6378 0,47.2264 -19.1457,89.9883 -50.1,120.943 -30.9544,30.952 -73.7174,50.0989 -120.943,50.0989 -47.2276,0 -89.9871,-19.1469 -120.941,-50.1 -30.952,-30.952 -50.1,-73.715 -50.1,-120.941 0,-8.3126 0.614174,-16.5414 1.80118,-24.6378 1.86732,0.141732 3.75237,0.216142 5.65985,0.216142l327.163 0c1.90512,0 3.79252,-0.0744095 5.65748,-0.216142z"/>
  <path class="fil2" d="M722.799 255.966l249.062 0c17.3516,0 31.4173,13.0642 31.4173,29.1768l29.2429 118.577c0,19.1362 -16.7032,34.65 -37.3063,34.65l-295.77 0c-20.6032,0 -37.3075,-15.5138 -37.3075,-34.65l29.2441 -118.577c0,-16.1126 14.0658,-29.1768 31.4173,-29.1768z"/>
  <path class="fil1" d="M1079.7 908.248c-8.59607,-56.7957 -28.8626,-109.361 -65.6894,-150.796 -35.3764,-39.8032 -85.2461,-68.615 -153.589,-80.1402 -8.74253,-1.47402 -17.6398,-2.4437 -26.6315,-2.87953 -41.0292,-1.9878 -80.38,7.87678 -112.253,32.2488 -31.7185,24.2563 -55.141,62.0611 -64.193,115.745 -1.80236,10.6854 -3.02953,22.1929 -3.63071,34.5473l-0.0897638 -0.00472441c-0.0248032,0.519685 -0.0366142,1.03701 -0.0366142,1.55079l-0.0011811 0c0,106.218 -8.38229,171.73 -16.1504,232.449 -7.33229,57.3189 -14.1413,110.549 -13.4693,187.088 0.394488,44.7839 7.6252,88.1257 20.9941,128.809 7.3004,22.2154 16.4232,43.6949 27.2563,64.2426 95.8335,41.3611 232.808,41.8418 365.868,42.3 74.1402,0.255118 147.093,0.507874 211.615,7.67599 8.2193,0.905906 14.1484,8.30434 13.2425,16.5236 -0.905906,8.2193 -8.30434,14.1484 -16.5236,13.2425 -63.5516,-7.06064 -135.359,-7.30867 -208.334,-7.56024 -133.773,-0.46063 -271.402,-0.946064 -372.431,-42.5079 -53.367,32.6799 -104.027,86.3481 -135.105,119.278l-0.284646 0.302362c-34.6784,36.8587 -39.2079,79.7327 -26.5193,113.113 4.83544,12.7181 12.2209,24.0945 21.4795,33.3366 9.53387,9.51851 21.0839,16.7953 33.9532,21.0177 30.1855,9.90828 66.1571,3.29173 97.917,-30.4642 11.5807,-12.2705 31.8024,-24.6 51.9284,-36.8705 16.8579,-10.2768 33.6626,-20.5217 48.1453,-32.1803 107.353,15.7536 307.042,13.2567 463.083,11.3067 53.3764,-0.668504 101.6,-1.27087 138.754,-1.05827l-0.0011811 0.124016c1.41496,0.00826772 2.80866,-0.0767717 4.1752,-0.246851 95.0765,-4.10551 149.557,-45.5209 173.524,-98.7391 10.4327,-23.165 14.7673,-48.3815 13.9205,-73.6075 -0.826772,-24.6201 -6.60473,-49.2426 -16.4539,-71.8796 -25.8366,-59.3776 -80.1142,-106.317 -147.765,-106.754l0 -0.00590552 -0.37441 -0.00708662 0 -0.116929c-0.732284,-0.00236221 -1.45866,0.0212599 -2.17795,0.0673229 -25.8331,-0.654331 -80.9564,-4.38307 -141.014,-11.2311 -42.7985,-4.87914 -87.5635,-11.3445 -124.741,-19.389 -30.0319,-6.49843 -46.0004,-25.4173 -53.3138,-51.1737 -4.55079,-16.0217 -6.31536,-34.6583 -6.16536,-54.88 -53.341,-21.4087 -98.3245,-65.6516 -136.4,-106.902 -10.7575,-11.6528 -21.3071,-23.4945 -31.8555,-35.3362 -12.874,-14.4508 -25.1788,-30.2622 -39.4087,-43.3654l-0.119291 -0.109843c-22.852,-21.0425 -40.037,-48.0402 -44.1343,-79.2804 -8.82638,-67.2945 38.6977,-129.104 105.982,-137.928 31.0748,-4.07481 62.2678,4.62638 87.9745,22.2095 2.1815,1.41496 4.13859,2.91851 6.01654,4.76457l0.962599 0.946064c17.2347,16.9394 34.2213,34.128 51.1867,51.3378 6.95906,7.05945 13.9039,14.1378 20.8795,21.1878z"/>
 </g>
 <rect class="fil3" width="2048" height="2048"/>
</svg>
